<svg width="564" height="100" viewBox="0 0 564 100" fill="none" xmlns="http://www.w3.org/2000/svg">
<path d="M162.196 11.7082C163.393 8.02295 168.607 8.02296 169.804 11.7082L176.328 31.7852C176.863 33.4333 178.399 34.5491 180.132 34.5491H201.242C205.117 34.5491 206.728 39.5076 203.593 41.7852L186.515 54.1935C185.113 55.2121 184.526 57.0175 185.062 58.6656L191.585 78.7427C192.782 82.4279 188.565 85.4924 185.43 83.2148L168.351 70.8065C166.949 69.7879 165.051 69.7879 163.649 70.8065L146.57 83.2148C143.435 85.4924 139.218 82.4279 140.415 78.7426L146.938 58.6656C147.474 57.0175 146.887 55.2121 145.485 54.1935L128.407 41.7852C125.272 39.5076 126.883 34.5491 130.758 34.5491H151.868C153.601 34.5491 155.137 33.4333 155.672 31.7852L162.196 11.7082Z" fill="#0F3D54"/>
<path d="M278.196 11.7082C279.393 8.02295 284.607 8.02296 285.804 11.7082L292.328 31.7852C292.863 33.4333 294.399 34.5491 296.132 34.5491H317.242C321.117 34.5491 322.728 39.5076 319.593 41.7852L302.515 54.1935C301.113 55.2121 300.526 57.0175 301.062 58.6656L307.585 78.7427C308.782 82.4279 304.565 85.4924 301.43 83.2148L284.351 70.8065C282.949 69.7879 281.051 69.7879 279.649 70.8065L262.57 83.2148C259.435 85.4924 255.218 82.4279 256.415 78.7426L262.938 58.6656C263.474 57.0175 262.887 55.2121 261.485 54.1935L244.407 41.7852C241.272 39.5076 242.883 34.5491 246.758 34.5491H267.868C269.601 34.5491 271.137 33.4333 271.672 31.7852L278.196 11.7082Z" fill="#0F3D54"/>
<path d="M394.196 11.7082C395.393 8.02295 400.607 8.02296 401.804 11.7082L408.328 31.7852C408.863 33.4333 410.399 34.5491 412.132 34.5491H433.242C437.117 34.5491 438.728 39.5076 435.593 41.7852L418.515 54.1935C417.113 55.2121 416.526 57.0175 417.062 58.6656L423.585 78.7427C424.782 82.4279 420.565 85.4924 417.43 83.2148L400.351 70.8065C398.949 69.7879 397.051 69.7879 395.649 70.8065L378.57 83.2148C375.435 85.4924 371.218 82.4279 372.415 78.7426L378.938 58.6656C379.474 57.0175 378.887 55.2121 377.485 54.1935L360.407 41.7852C357.272 39.5076 358.883 34.5491 362.758 34.5491H383.868C385.601 34.5491 387.137 33.4333 387.672 31.7852L394.196 11.7082Z" fill="#0F3D54"/>
<path d="M510.196 11.7082C511.393 8.02295 516.607 8.02296 517.804 11.7082L524.328 31.7852C524.863 33.4333 526.399 34.5491 528.132 34.5491H549.242C553.117 34.5491 554.728 39.5076 551.593 41.7852L534.515 54.1935C533.113 55.2121 532.526 57.0175 533.062 58.6656L539.585 78.7427C540.782 82.4279 536.565 85.4924 533.43 83.2148L516.351 70.8065C514.949 69.7879 513.051 69.7879 511.649 70.8065L494.57 83.2148C491.435 85.4924 487.218 82.4279 488.415 78.7426L494.938 58.6656C495.474 57.0175 494.887 55.2121 493.485 54.1935L476.407 41.7852C473.272 39.5076 474.883 34.5491 478.758 34.5491H499.868C501.601 34.5491 503.137 33.4333 503.672 31.7852L510.196 11.7082Z" fill="#0F3D54"/>
<path d="M46.1958 11.7082C47.3932 8.02295 52.6068 8.02296 53.8042 11.7082L60.3276 31.7852C60.8631 33.4333 62.399 34.5491 64.1319 34.5491H85.2421C89.117 34.5491 90.7281 39.5076 87.5932 41.7852L70.5147 54.1935C69.1128 55.2121 68.5261 57.0175 69.0616 58.6656L75.585 78.7427C76.7824 82.4279 72.5645 85.4924 69.4297 83.2148L52.3511 70.8065C50.9492 69.7879 49.0508 69.7879 47.6489 70.8065L30.5703 83.2148C27.4355 85.4924 23.2176 82.4279 24.415 78.7426L30.9384 58.6656C31.4739 57.0175 30.8872 55.2121 29.4853 54.1935L12.4068 41.7852C9.27191 39.5076 10.883 34.5491 14.7579 34.5491H35.8681C37.601 34.5491 39.1369 33.4333 39.6724 31.7852L46.1958 11.7082Z" fill="#0F3D54"/>
</svg>
